<svg xmlns="http://www.w3.org/2000/svg" xmlns:xlink="http://www.w3.org/1999/xlink" viewBox="0 0 100 100"><defs><style>.cls-1{fill:#fe5e04;}.cls-2{clip-path:url(#clip-path);}.cls-3{fill:#fdb044;}.cls-4{fill:none;stroke:#060305;stroke-linecap:round;stroke-linejoin:round;stroke-width:0.78px;}.cls-5{fill:#060305;}.cls-6{fill:#ffc9c8;}.cls-7{fill:#ff99a1;}</style><clipPath id="clip-path"><circle class="cls-1" cx="50" cy="50" r="50"/></clipPath></defs><g id="OBJECTS"><circle class="cls-1" cx="50" cy="50" r="50"/><g class="cls-2"><path class="cls-3" d="M97.18,86.49c-3.67-8.94-11.51-16.64-20.75-19-5.21-1.34-10.3-2.2-15.51-3.54A18.92,18.92,0,0,1,50,67.85a19.68,19.68,0,0,1-11.28-3.54l-13,2.3a27.52,27.52,0,0,0-21.58,21A192.18,192.18,0,0,0,29,99.23c8.54,3.28,17.66,5.35,26.78,4.81C70.86,103.13,84.56,94.94,97.18,86.49Z"/><path class="cls-4" d="M30.36,66.37A20,20,0,0,0,49,79.32,20,20,0,0,0,67.22,65.77"/><path class="cls-4" d="M21,68a100.8,100.8,0,0,1-1,25.26"/><path class="cls-4" d="M76.38,67.58a73.39,73.39,0,0,0,4,23.22"/><path class="cls-4" d="M30.61,18.74,33,20.18l-.23-3.32"/><path class="cls-4" d="M69.23,21.72a5.59,5.59,0,0,1,8.1,4.9"/><path class="cls-5" d="M29.22,40.5,27.11,25.25c3.82-4.05,8.41-8.36,13.48-10.65a27.4,27.4,0,0,1,16.28-2.22,20.15,20.15,0,0,1,13.45,9.06,4.16,4.16,0,0,1,4,1.38,4.14,4.14,0,0,1-2.07,7c-.91,4.26-1.88,8.61-2.79,12.87Z"/><path class="cls-6" d="M64,65.41l-3-.58c-.05-1.38,0-2.87-.06-4.24a11.69,11.69,0,0,0,6.54-9A14,14,0,0,0,72,46.79a8.55,8.55,0,0,0,.79-6.5,6,6,0,0,0-4.78-4A18.73,18.73,0,0,0,64.94,25c-7.88.15-15.65.13-23.53.29l-4.59,13.9-2.44-3.64a7.78,7.78,0,0,0-6.87,5.12,9,9,0,0,0,1.66,8.51,10.84,10.84,0,0,0,8,3.74c0,4.12-.1,8.35-.13,12.47-.88.22-2.11.34-3,.56,2.59,5.73,8.85,10,15.13,9.78S61.75,71.28,64,65.41Z"/><ellipse class="cls-7" cx="45.77" cy="46.01" rx="3.24" ry="5.01" transform="translate(-8.99 80.84) rotate(-77.61)"/><ellipse class="cls-7" cx="62.65" cy="46.2" rx="5.01" ry="3.24" transform="translate(-8.9 15.53) rotate(-13.2)"/><path class="cls-4" d="M68.11,36a82.41,82.41,0,0,1-.59,16.24"/><path class="cls-4" d="M68.24,42.56l2.62-1.65"/><path class="cls-4" d="M30.16,40l4.65,3.19"/><path class="cls-4" d="M36.84,53.13l-.59-2.74"/><path class="cls-4" d="M46.81,61.78a16.3,16.3,0,0,0,15.11-1.5"/><circle class="cls-5" cx="46.45" cy="40.8" r="1.17"/><circle class="cls-5" cx="62.22" cy="40.8" r="1.17"/><path class="cls-4" d="M55.4,39.67,56.54,49H54.09"/><path class="cls-4" d="M43.13,34.07a4.14,4.14,0,0,1,6.9.76"/><path class="cls-4" d="M59.18,33.68l4.53-.49"/><path class="cls-4" d="M49.2,49.85a2.37,2.37,0,0,0,3.89,1.6"/></g></g></svg>