<svg xmlns="http://www.w3.org/2000/svg" xmlns:xlink="http://www.w3.org/1999/xlink" viewBox="0 0 100 100"><defs><style>.cls-1{fill:#b4d2fe;}.cls-2{clip-path:url(#clip-path);}.cls-3{fill:#ff9a7d;}.cls-4{fill:#fff;}.cls-5{fill:none;stroke:#060305;stroke-linecap:round;stroke-linejoin:round;stroke-width:0.78px;}.cls-6{fill:#c14f4f;}.cls-7{fill:#060305;}</style><clipPath id="clip-path"><circle class="cls-1" cx="50" cy="50" r="50"/></clipPath></defs><g id="OBJECTS"><circle class="cls-1" cx="50" cy="50" r="50"/><g class="cls-2"><path class="cls-3" d="M61.77,69.55c-.08-4.37-.17-8.59-.24-13L37.84,54.16,36.63,67.35a19.93,19.93,0,0,0,12.13,5.2C53.19,72.79,58.18,72.17,61.77,69.55Z"/><path class="cls-4" d="M84.47,71.33A48.37,48.37,0,0,0,66.2,66.49l.24-.32-2.83-5.31-13,8.49-14.45-10-3.51,6.09.5.57a91.2,91.2,0,0,0-10.09,3.12,32.64,32.64,0,0,0-10.58,6.31A24.74,24.74,0,0,0,5,89.51c14,10,31.13,16.3,48.32,15.6s31.86-7.86,45-19C96.25,79.48,90.73,74.33,84.47,71.33Z"/><path class="cls-5" d="M33,66.22l12,13c2-3.25,3.84-6.38,5.81-9.64,1.87,3.4,3.85,6.68,5.71,10.08,3.32-4.51,6.55-8.94,9.87-13.45"/><path class="cls-5" d="M50.73,70.05l1.05,27.89"/><path class="cls-5" d="M64.85,97.13l-.7-10.72c4.63-.06,9.1,0,13.72-.12.1,2.84-.19,5.52-.1,8.36"/><path class="cls-5" d="M81.45,70.19A104,104,0,0,0,85.15,90"/><path class="cls-5" d="M18.57,71.44,16.83,92.19"/><path class="cls-3" d="M68.78,36.32a5.45,5.45,0,0,1,5.35,3.33,7.46,7.46,0,0,1-.55,6.5,12.08,12.08,0,0,1-4.9,4.52Z"/><path class="cls-5" d="M68.94,42.7l2.88-2.47"/><path class="cls-6" d="M68.62,53.05a125.59,125.59,0,0,0,.27-20.33,10.07,10.07,0,0,0,.2-5.11,15.48,15.48,0,0,0-3.29-6.42,17.59,17.59,0,0,0-3.89-3.36A20.92,20.92,0,0,0,29.93,39a51.22,51.22,0,0,0,3.9,12.36A28.19,28.19,0,0,0,41.62,62,17,17,0,0,0,54,65.87a18.06,18.06,0,0,0,9.58-3.76A14.63,14.63,0,0,0,68.62,53.05Z"/><path class="cls-3" d="M67.79,34.54c0,.89,0,2,.1,3.19a25.33,25.33,0,0,1-2.58,12.32l0,.07a39.41,39.41,0,0,0-18.2.2L46,49.69a12.11,12.11,0,0,1-5.71-8.34l-1.19-6.9A10.87,10.87,0,0,1,41,26.87a8.77,8.77,0,0,1,6.5-4.06,6.76,6.76,0,0,1,6.54,3.62c.22-2,2.39-3.68,4.33-4a6.57,6.57,0,0,1,5.43,1.75C65.27,25.49,67.76,29.69,67.79,34.54Z"/><circle class="cls-6" cx="59.99" cy="44.07" r="0.58"/><circle class="cls-6" cx="64.45" cy="44.35" r="0.58"/><circle class="cls-6" cx="61.94" cy="46.56" r="0.58"/><circle class="cls-6" cx="45.01" cy="45.39" r="0.58"/><circle class="cls-6" cx="48.88" cy="44.28" r="0.58"/><circle class="cls-6" cx="51.01" cy="45.98" r="0.58"/><circle class="cls-6" cx="47.71" cy="47.64" r="0.58"/><path class="cls-3" d="M37.26,39.54l-2.92-3a8.54,8.54,0,0,0-7.53,5.32,7.79,7.79,0,0,0,2.64,8.49,8.87,8.87,0,0,0,9.31.74Z"/><path class="cls-5" d="M30.18,41l4.68,2.75"/><path class="cls-5" d="M51.62,29.46l4.54.26"/><path class="cls-5" d="M51.07,31.86l5.64.14"/><circle class="cls-7" cx="46.78" cy="41.03" r="1.17"/><circle class="cls-7" cx="62.16" cy="41.03" r="1.17"/><path class="cls-5" d="M55.16,40.42a12,12,0,0,1,2.13,7.5c-.92.14-1.88.21-2.79.35"/><path class="cls-5" d="M43.21,37.32a3.93,3.93,0,0,1,6.93.28"/><path class="cls-5" d="M59.58,37.49a3.28,3.28,0,0,1,5.81-.38"/><path class="cls-5" d="M51.11,51.07a2.67,2.67,0,0,0,4.36,1.39"/></g></g></svg>