<svg xmlns="http://www.w3.org/2000/svg" xmlns:xlink="http://www.w3.org/1999/xlink" viewBox="0 0 100 100"><defs><style>.cls-1{fill:#ffc9c8;}.cls-2{clip-path:url(#clip-path);}.cls-3{fill:#b478ff;}.cls-4,.cls-7{fill:none;stroke-linecap:round;stroke-linejoin:round;stroke-width:0.78px;}.cls-4{stroke:#060305;}.cls-5{fill:#c14f4f;}.cls-6{fill:#772227;}.cls-7{stroke:#772227;}.cls-8{fill:#060305;}.cls-9{fill:#fff;}</style><clipPath id="clip-path"><circle class="cls-1" cx="50" cy="50" r="50"/></clipPath></defs><g id="OBJECTS"><circle class="cls-1" cx="50" cy="50" r="50"/><g class="cls-2"><path class="cls-3" d="M98.55,87.92A32.81,32.81,0,0,0,74,69.07c1.9-3.23,1-7.58-1.45-10.42s-6.25-4.27-9.85-5.3a56.31,56.31,0,0,0-33.81,1A23.18,23.18,0,0,0,22,57.86a10.69,10.69,0,0,0-4,6.45,7,7,0,0,0,2.72,6.85A24.26,24.26,0,0,0,4.94,90.06c14,9.14,30.72,13.46,47.41,13.26S84.82,97.4,98.55,87.92Z"/><path class="cls-4" d="M20.55,71.43a14.59,14.59,0,0,1,13.14.21c5.48,2.93,10.94,6.19,16.35,9.3a3.27,3.27,0,0,0,3.81-.4C57.8,77,61.76,73.52,65.69,70c2.32-2.09,6-1.53,9-.74"/><path class="cls-4" d="M51.11,79.87V90"/><path class="cls-4" d="M53.3,79.43l1.48,12"/><path class="cls-4" d="M22.8,70.71A60.12,60.12,0,0,1,23,95"/><path class="cls-4" d="M73,69.06a62.69,62.69,0,0,0,4.77,26.05"/><path class="cls-4" d="M37.05,66.46a24.33,24.33,0,0,0-9.95-5.19"/><path class="cls-4" d="M61,66.36l4.83-3.42"/><path class="cls-5" d="M68.22,37.25a5.88,5.88,0,0,1,5,3.88,8.13,8.13,0,0,1-.54,6.45,13.33,13.33,0,0,1-4.49,4.83Z"/><path class="cls-4" d="M68.79,43.58l2.95-2.36"/><path class="cls-5" d="M61,66.45c0-3.66.15-6.86.2-10.53-7.92-.13-15.74-.2-23.67-.33l-.66,11c5,4,10,8.22,15,12.23C54.83,74.74,58.08,70.53,61,66.45Z"/><path class="cls-6" d="M71.69,26.7a3.55,3.55,0,0,0-4.15-2.48,3.17,3.17,0,0,0-.25-4.64c-1.41-1.06-4.34-.9-5.14.67a15,15,0,0,0-9.84-5.19A20.93,20.93,0,0,0,38,18.39a7.85,7.85,0,0,0-5.23-4.76A8.21,8.21,0,0,0,24.16,17a8.69,8.69,0,0,0,0,9.33,9.18,9.18,0,0,0,5.49,3.83,20.51,20.51,0,0,0-.2,10,112.56,112.56,0,0,0,4.39,13A24.9,24.9,0,0,0,37.21,60,9,9,0,0,0,44,63.37a10,10,0,0,0,14.77,1.07A11.47,11.47,0,0,0,67,60.22c2-2.48,2-5.59,2-8.75,0-6.83.28-13.8.25-20.63A3.55,3.55,0,0,0,71.69,26.7Z"/><path class="cls-7" d="M25.21,14.05a8.87,8.87,0,0,1,13,4.87"/><path class="cls-7" d="M61.62,20.8a4.76,4.76,0,0,1,2.18-2.61,4.7,4.7,0,0,1,3.37-.44"/><path class="cls-5" d="M67,39.76c-.53,3.9-.65,7.56-1.18,11.46a39,39,0,0,0-25.19,0L37.69,40.9a16,16,0,0,0,1.72-11,7.32,7.32,0,0,0,8.75-6.6,24.52,24.52,0,0,1,5.54-.36,7.93,7.93,0,0,1,5,1.86c1,.95,1.73,2.26,2.82,3.15s3,1.18,3.79,0Z"/><path class="cls-7" d="M47.9,23.16a10.86,10.86,0,0,1,8.9,1.66,21.29,21.29,0,0,1,4.59,5.1"/><path class="cls-5" d="M35.32,38a7.71,7.71,0,0,0-8.55,3.66A8.35,8.35,0,0,0,27.92,51a9.07,9.07,0,0,0,9.17,2.5Z"/><path class="cls-4" d="M29.41,41.08l4.76,2.2"/><circle class="cls-8" cx="46.25" cy="42.4" r="1.17"/><circle class="cls-8" cx="61.19" cy="42.4" r="1.17"/><path class="cls-9" d="M55.23,51.93a22.74,22.74,0,0,1-7-.79,4,4,0,0,0,3.22,2.58A4,4,0,0,0,55.23,51.93Z"/><path class="cls-4" d="M42.32,38a4.21,4.21,0,0,1,7.12-.79"/><path class="cls-4" d="M58,36.77a3.89,3.89,0,0,1,6.72,0"/><path class="cls-4" d="M54.44,41.4,56,47.93c-.88,0-1.91,0-2.79,0"/></g></g></svg>