<svg xmlns="http://www.w3.org/2000/svg" xmlns:xlink="http://www.w3.org/1999/xlink" viewBox="0 0 100 100"><defs><style>.cls-1{fill:#fdb044;}.cls-2{clip-path:url(#clip-path);}.cls-3,.cls-6{fill:none;stroke-linecap:round;stroke-linejoin:round;stroke-width:0.78px;}.cls-3{stroke:#fe5e04;}.cls-4{fill:#fe5e04;}.cls-5{fill:#5abe46;}.cls-6{stroke:#060305;}.cls-7{fill:#ffc9c8;}.cls-8{fill:#ff99a1;}.cls-9{fill:#060305;}</style><clipPath id="clip-path"><circle class="cls-1" cx="50" cy="50" r="50"/></clipPath></defs><g id="OBJECTS"><circle class="cls-1" cx="50" cy="50" r="50"/><g class="cls-2"><path class="cls-3" d="M36.44,11.71a8.05,8.05,0,0,1,4.87,4.81,6.86,6.86,0,0,1,.87-5.71"/><path class="cls-3" d="M70.3,34.69a5.48,5.48,0,0,0,4.34,1,5.55,5.55,0,0,0,3.62-2.6"/><path class="cls-4" d="M30.75,45.48,29.36,34.2a2.84,2.84,0,0,1-3-1.87,2.58,2.58,0,0,1,1.51-3c-1.69-.25-3.43-2.06-3.14-3.74A3.35,3.35,0,0,1,28.52,23a7.64,7.64,0,0,1,.56-7,7.23,7.23,0,0,1,12.15.43,5.22,5.22,0,0,1,4.16-5.3,5,5,0,0,1,5.42,3.71A3.22,3.22,0,0,1,57.16,14a6,6,0,0,1,5-3.75,6.12,6.12,0,0,1,5.7,9.26A3.31,3.31,0,0,1,72,19.31a3.35,3.35,0,0,1,.65,4.16,1.74,1.74,0,1,1,1.22,3.11,4.07,4.07,0,0,1,3.58,3.28,4.65,4.65,0,0,1-1.84,4.39,6.32,6.32,0,0,1-4.76,1.1c-.35,4-.66,7.88-1,11.91Z"/><path class="cls-5" d="M98.77,87.47a36.76,36.76,0,0,0-26-19.73c-4.38-.86-8.73-1.44-13.11-2.3a16.11,16.11,0,0,1-21.36-.3L23.57,69.42c-9.38,2.72-17.21,11-18.69,20.65a76.61,76.61,0,0,0,46.85,15C68.5,104.82,85.64,97.92,98.77,87.47Z"/><path class="cls-6" d="M33.92,66.88A17.54,17.54,0,0,0,49.81,77.13,17.54,17.54,0,0,0,65.44,66.47"/><path class="cls-6" d="M50.57,73,53,102"/><path class="cls-6" d="M23.86,69.63,22.43,96.56"/><path class="cls-6" d="M76.39,68.62,82,94.08"/><path class="cls-7" d="M61.29,65.76c-.14-1.19,0-2.22-.17-3.41a13.63,13.63,0,0,0,7.12-10.47,11.71,11.71,0,0,0,4.53-4.65,7.6,7.6,0,0,0,.33-6.37,5.59,5.59,0,0,0-5.3-3.13c-.23-2.52-.28-5.35-.52-7.87a2.39,2.39,0,0,1-2.89-2.05,2.22,2.22,0,0,1-3.85-1.88,4.36,4.36,0,0,1-4.67,1.15A4.55,4.55,0,0,1,53.11,23a8.74,8.74,0,0,1-5.55,4.54,9,9,0,0,1-7.25-1L37.67,37.74a7.84,7.84,0,0,0-9,2.63,8.52,8.52,0,0,0-.12,9.5,9.29,9.29,0,0,0,8.78,3.89c0,4.12-.08,8-.11,12.14a15,15,0,0,0,12.24,6.51A14.42,14.42,0,0,0,61.29,65.76Z"/><ellipse class="cls-8" cx="44.64" cy="45.82" rx="2.57" ry="3.97" transform="translate(-9.7 79.59) rotate(-77.61)"/><ellipse class="cls-8" cx="63.35" cy="46.06" rx="3.97" ry="2.57" transform="translate(-8.85 15.68) rotate(-13.2)"/><path class="cls-6" d="M68.06,37.63l.2,14.84"/><path class="cls-6" d="M68.44,43.71l3.15-1.88"/><path class="cls-6" d="M31.29,40.64,36,44.86"/><path class="cls-6" d="M37.43,53.85l-.09-1.92"/><path class="cls-6" d="M48.16,63.6a14.1,14.1,0,0,0,13.46-1.21"/><circle class="cls-9" cx="46.49" cy="41.96" r="1.17"/><circle class="cls-9" cx="61.24" cy="41.96" r="1.17"/><path class="cls-6" d="M43.33,36.3A4.19,4.19,0,0,1,49.07,36"/><path class="cls-6" d="M58.22,34.92l5.31-.21"/><path class="cls-6" d="M54,41.85a6,6,0,0,0,2.15,4.61c-.86.33-1.78.65-2.63,1"/><path class="cls-6" d="M49.19,49.64a2.38,2.38,0,0,0,3.72,1.74"/><path class="cls-3" d="M53,22.42a9,9,0,0,1-6.56,7"/></g></g></svg>