<svg xmlns="http://www.w3.org/2000/svg" xmlns:xlink="http://www.w3.org/1999/xlink" viewBox="0 0 100 100"><defs><style>.cls-1{fill:#b4d2fe;}.cls-2{clip-path:url(#clip-path);}.cls-3,.cls-6,.cls-7{fill:none;stroke-linecap:round;stroke-linejoin:round;stroke-width:0.78px;}.cls-3{stroke:#c14f4f;}.cls-4{fill:#c14f4f;}.cls-5{fill:#060305;}.cls-6{stroke:#fff;}.cls-7{stroke:#060305;}.cls-8{fill:#ff9a7d;}.cls-9{fill:#ff7171;}</style><clipPath id="clip-path"><circle class="cls-1" cx="50" cy="50" r="50"/></clipPath></defs><g id="OBJECTS"><circle class="cls-1" cx="50" cy="50" r="50"/><g class="cls-2"><path class="cls-3" d="M51.52,12.79C45.28,12.2,39,14.76,34.3,19a34.63,34.63,0,0,0-9.53,16.2,67.37,67.37,0,0,0-2.15,18.94"/><path class="cls-4" d="M26.67,70.84a93,93,0,0,1-2.4-21A55.92,55.92,0,0,1,26.77,32a31.25,31.25,0,0,1,10-14.83,21.83,21.83,0,0,1,17-4.62c4.52.82,9.2,2.08,12.25,5.52a25.52,25.52,0,0,1,5.51,12.47,116.94,116.94,0,0,1,1.14,13.75,147.91,147.91,0,0,0,4.68,29.19Z"/><path class="cls-5" d="M99.57,85c-3.74-10.69-13.78-18.86-25-20.84-4.68-.83-9.3-1.05-14-1.88a16.88,16.88,0,0,1-10.49,3.47,17.28,17.28,0,0,1-10.46-3.87l-14.5,3.72C15.77,68,8,75.87,6.54,85.42c14,8.23,28.8,17.09,45,17S85.71,93.36,99.57,85Z"/><path class="cls-6" d="M31.68,64.84A21.92,21.92,0,0,0,50.85,75.46,21.94,21.94,0,0,0,69.36,63.72"/><path class="cls-7" d="M22.62,66.31a82.07,82.07,0,0,1,2.47,24.38"/><path class="cls-7" d="M79.19,65.77a72.11,72.11,0,0,0,.65,24.56"/><path class="cls-8" d="M62.2,63.2c-.1-1.15,0-2.32-.12-3.47a13.66,13.66,0,0,0,6.76-9.93,11.27,11.27,0,0,0,5.1-4.93,8,8,0,0,0,.18-7,5.82,5.82,0,0,0-5.55-3.4c-1.71-7.69-7.73-13.82-15.17-16.41L39.74,37c-.66-.75-1.45-1.92-2.11-2.67a8.41,8.41,0,0,0-7.87,13.3,8.61,8.61,0,0,0,8.67,3.24c0,4.08.2,8.26.2,12.34-1.28.4-2.62.63-3.91,1A17.72,17.72,0,0,0,50,72.54,18.27,18.27,0,0,0,65.2,63.68Z"/><ellipse class="cls-9" cx="46.22" cy="44.54" rx="2.57" ry="3.97" transform="translate(-7.2 80.12) rotate(-77.61)"/><ellipse class="cls-9" cx="64.75" cy="44.23" rx="3.97" ry="2.57" transform="translate(-8.39 15.96) rotate(-13.2)"/><path class="cls-7" d="M68.53,34.34A68.56,68.56,0,0,1,69,50.28"/><path class="cls-7" d="M69.4,40.63l3.23-2.53"/><path class="cls-7" d="M32.23,38,37,41.9"/><path class="cls-7" d="M51.06,61.47a12.55,12.55,0,0,0,11.49-1.75"/><path class="cls-3" d="M53.4,17.63A41.27,41.27,0,0,1,48.66,28"/><circle class="cls-5" cx="63.21" cy="39.83" r="1.17"/><path class="cls-7" d="M56.06,39.35l1.54,8.09-2.49.37"/><path class="cls-7" d="M50.54,48.81a2.15,2.15,0,0,0,3.63,1.52"/><path class="cls-7" d="M45.54,39.87a2.66,2.66,0,0,1,4,.86"/><path class="cls-7" d="M42.21,34.89l9.18,1.32"/><path class="cls-7" d="M58.23,35.26a5.43,5.43,0,0,1,9.41-3.44"/></g></g></svg>