<svg xmlns="http://www.w3.org/2000/svg" xmlns:xlink="http://www.w3.org/1999/xlink" viewBox="0 0 100 100"><defs><style>.cls-1{fill:#ffc9c8;}.cls-2{clip-path:url(#clip-path);}.cls-3{fill:#b478ff;}.cls-10,.cls-4{fill:none;stroke-linecap:round;stroke-linejoin:round;stroke-width:0.78px;}.cls-4{stroke:#060305;}.cls-5{fill:#772227;}.cls-6{fill:#c14f4f;}.cls-7{fill:#dc6e5a;}.cls-8{fill:#060305;}.cls-9{fill:#fff;}.cls-10{stroke:#fff;}</style><clipPath id="clip-path"><circle class="cls-1" cx="50" cy="50" r="50"/></clipPath></defs><g id="OBJECTS"><circle class="cls-1" cx="50" cy="50" r="50"/><g class="cls-2"><path class="cls-3" d="M97.26,84c-3.13-5.41-6.68-10.77-11.78-14.37-7.15-5-16.21-6-24.93-6.75-2.39,3.49-7,5-11.18,4.66s-8.47-2.8-12-5.1A35.12,35.12,0,0,0,5.21,83.9c12.29,10.56,31.23,22.3,47.4,21.27S82.62,90.91,97.26,84Z"/><path class="cls-4" d="M33.72,62.51A16.74,16.74,0,0,0,48.47,72.76a16.73,16.73,0,0,0,15.24-9.5"/><path class="cls-4" d="M46,72.56l3.42,4.23,3.06-4.35"/><path class="cls-5" d="M37.61,20.58s-10,5.76-5.13,18.43S52.9,30.61,37.61,20.58Z"/><path class="cls-6" d="M73.37,41a9.7,9.7,0,0,1-2.74,5,13.65,13.65,0,0,1-1.58,1.36c-.27,4.39-1.5,8.07-4.62,10.64a14.23,14.23,0,0,1-3.75,2.18c.08,1.33-.13,2.64-.06,4a13.77,13.77,0,0,1-12,6.06,15.05,15.05,0,0,1-7.93-2.89,13.92,13.92,0,0,1-3.93-4.4c.08-2,.19-3.94.3-5.89.11-2.17.24-4.33.32-6.56a10.38,10.38,0,0,1-8.53-3.52,8.64,8.64,0,0,1-1.27-9,7.43,7.43,0,0,1,7.9-4.09c.5.87.95,1.78,1.45,2.65a13.66,13.66,0,0,0,3.09-7.88,13.52,13.52,0,0,0-2.45-8.06,17.92,17.92,0,0,1,12.84-5.31h0a17.31,17.31,0,0,1,6.62,1.29,16.54,16.54,0,0,1,8.09,7.55,25.83,25.83,0,0,1,2.89,9.12l.09.71a5.06,5.06,0,0,1,3.76,1.6A6.47,6.47,0,0,1,73.37,41Z"/><path class="cls-7" d="M65.17,24.1a4.77,4.77,0,0,1-.86,1,4.53,4.53,0,0,1-6.2-.13c-.62-.7-1.07-1.67-2-1.94-1.25-.36-2.34.88-3.53,1.42a4,4,0,0,1-4.94-1.89,5.22,5.22,0,0,1,.67-5.47,8.24,8.24,0,0,1,2.11-1.88h0a17.31,17.31,0,0,1,6.62,1.29A16.54,16.54,0,0,1,65.17,24.1Z"/><path class="cls-7" d="M69.05,45.55v1.8c-.27,4.39-1.5,8.07-4.62,10.64-4.33-.93-3.29-5.62-1.14-5.62,2.62,0,3.15-2.66,1-3.26S63.49,42.63,69.05,45.55Z"/><path class="cls-7" d="M40.83,64.1a2,2,0,0,1,.46,1.23,3.26,3.26,0,0,1-.56,2,13.92,13.92,0,0,1-3.93-4.4c.08-2,.19-3.94.3-5.89a3.67,3.67,0,0,1,2.17.22,3.68,3.68,0,0,1,.36,6.58A1.09,1.09,0,0,1,40.83,64.1Z"/><path class="cls-4" d="M68.64,42.93,69,47.15"/><path class="cls-4" d="M68.83,40.79l2.69-3.1"/><path class="cls-4" d="M30.2,38l5.57,3.79"/><path class="cls-4" d="M36.71,48.88l.46,2.2"/><path class="cls-4" d="M49.47,60.87A19.2,19.2,0,0,0,60.93,60"/><path class="cls-4" d="M51.19,43.13c-3.39,0-6.88-.27-10.27-.29-.51-1.86-.67-3.83-1.19-5.68h13C52.34,39.09,51.59,41.2,51.19,43.13Z"/><path class="cls-4" d="M68.51,42.71c-3.09,0-6.2.2-9.29.24-.43-2-.82-3.89-1.25-5.85L69.42,37C69.2,38.72,68.72,41,68.51,42.71Z"/><path class="cls-4" d="M52.68,37a2.85,2.85,0,0,1,5.52.1"/><circle class="cls-8" cx="46.48" cy="39.86" r="1.17"/><circle class="cls-8" cx="62.53" cy="39.86" r="1.17"/><path class="cls-9" d="M54,48a5.56,5.56,0,0,1-4.94-.72,2.55,2.55,0,0,0,.72,2.57,2.72,2.72,0,0,0,2.73.35A2.53,2.53,0,0,0,54,48Z"/><path class="cls-4" d="M53.66,45.85l2.84-.18c-.28-2.65-.62-5.49-.9-8.15"/><path class="cls-4" d="M43.52,34.8a4.69,4.69,0,0,1,6.67.52"/><path class="cls-4" d="M59.35,35.52a4.7,4.7,0,0,1,6.77-.47"/><path class="cls-8" d="M36.17,98.56,31.4,62.48l-8.51,2.19s3.83,23.89,5.82,35.93Z"/><path class="cls-10" d="M33.59,79.91l-8.15,1.17A4.58,4.58,0,0,0,30,83.73,4.5,4.5,0,0,0,33.59,79.91Z"/><path class="cls-8" d="M67.12,96.7l1.19-33.89c2.88.65,5.37.86,8.25,1.51-.28,10.45-.53,21-.8,31.48Z"/><path class="cls-10" d="M76.11,80.15l-8.52-.26a4.85,4.85,0,0,0,4.12,3.6C73.62,83.59,75.42,81.94,76.11,80.15Z"/></g></g></svg>