<svg xmlns="http://www.w3.org/2000/svg" xmlns:xlink="http://www.w3.org/1999/xlink" viewBox="0 0 100 100"><defs><style>.cls-1{fill:#b478ff;}.cls-2{clip-path:url(#clip-path);}.cls-3{fill:#ffc9c8;}.cls-4{fill:#ff99a1;}.cls-5{fill:none;stroke:#060305;stroke-linecap:round;stroke-linejoin:round;stroke-width:0.78px;}.cls-6{fill:#060305;}.cls-7{fill:#fff;}</style><clipPath id="clip-path"><circle class="cls-1" cx="50" cy="50" r="50"/></clipPath></defs><g id="OBJECTS"><circle class="cls-1" cx="50" cy="50" r="50"/><g class="cls-2"><path class="cls-3" d="M97.71,82.19C93.45,72.72,83.84,67.21,74,63.9a107.86,107.86,0,0,0-13.25-3.44c0-1.06-.3-1.93-.33-3a10.78,10.78,0,0,0,5.84-9.31,17.23,17.23,0,0,0,5-5,9.54,9.54,0,0,0,1.42-6.8,6.19,6.19,0,0,0-4.54-4.66A18.12,18.12,0,0,0,40.94,15,18.71,18.71,0,0,0,32,31.48a8.85,8.85,0,0,0-5.15,10.13,8.85,8.85,0,0,0,9.44,6.32c-.26,4.31-.21,8.49-.47,12.8-4,1.19-8.14,2.23-12.14,3.41A31.09,31.09,0,0,0,3.62,84,78.61,78.61,0,0,0,50.9,97.68C67.67,97.15,83.54,91.18,97.71,82.19Z"/><ellipse class="cls-4" cx="44.7" cy="41.59" rx="3.24" ry="5.01" transform="translate(-5.51 76.33) rotate(-77.61)"/><ellipse class="cls-4" cx="61.59" cy="41.78" rx="5.01" ry="3.24" transform="translate(-7.91 15.17) rotate(-13.2)"/><path class="cls-5" d="M68.27,31.61,66.44,48.85"/><path class="cls-5" d="M67.76,37.73l2.94-1.48"/><path class="cls-5" d="M30.3,35l4.52,2.23"/><path class="cls-5" d="M31.64,31.45a5.62,5.62,0,0,1,5.8-.07"/><circle class="cls-6" cx="44.87" cy="36.54" r="1.17"/><circle class="cls-6" cx="61.22" cy="36.54" r="1.17"/><path class="cls-5" d="M41.05,31.07a4.78,4.78,0,0,1,7.89.37"/><path class="cls-5" d="M57.44,31.9a4.4,4.4,0,0,1,7.9,0"/><path class="cls-5" d="M53.59,35.93l1.55,8.44-2.65.1"/><path class="cls-5" d="M48.56,45.75a2.46,2.46,0,0,0,3.37,1.9"/><path class="cls-5" d="M29.56,43.7l-1.47,3"/><path class="cls-5" d="M32.59,44.91l-1.41,5.3"/><path class="cls-5" d="M48.72,58.44a12.87,12.87,0,0,0,12.15-1"/><path class="cls-5" d="M22,79.61l1.43,2.77"/><path class="cls-5" d="M74.26,82.62l1.83-2.48"/><path class="cls-7" d="M81.84,95.2a43.94,43.94,0,0,1-9.46-32.78c-2.2-.54-4.28-1-6.48-1.52a17.73,17.73,0,0,1-34.68.52c-2.34.63-4.5,1.12-6.84,1.75a41.37,41.37,0,0,1-6.71,30.28,44.23,44.23,0,0,0,20.93,9.29,58.2,58.2,0,0,0,21.51-1.18A190.37,190.37,0,0,0,81.84,95.2Z"/><path class="cls-5" d="M29.21,62c.63,5.43,4.38,10.23,9.19,12.85a20.71,20.71,0,0,0,30-13"/></g></g></svg>