<svg xmlns="http://www.w3.org/2000/svg" xmlns:xlink="http://www.w3.org/1999/xlink" viewBox="0 0 100 100"><defs><style>.cls-1{fill:#b4d2fe;}.cls-2{clip-path:url(#clip-path);}.cls-3,.cls-7{fill:none;stroke-linecap:round;stroke-linejoin:round;stroke-width:0.78px;}.cls-3{stroke:#c14f4f;}.cls-4{fill:#c14f4f;}.cls-5{fill:#fff;}.cls-6{fill:#060305;}.cls-7{stroke:#060305;}.cls-8{fill:#fe5e04;}.cls-9{fill:#ff9a7d;}</style><clipPath id="clip-path"><circle class="cls-1" cx="50" cy="50" r="50"/></clipPath></defs><g id="OBJECTS"><circle class="cls-1" cx="50" cy="50" r="50"/><g class="cls-2"><path class="cls-3" d="M34.43,20.65l1.91.67-.67-2.19"/><path class="cls-4" d="M30.7,37.14A19.64,19.64,0,0,1,40.53,18a20.82,20.82,0,0,1,22,1.45,15.84,15.84,0,0,1,4.4,4.9c2.86,5.12,1.94,11.37,1,17.12Z"/><path class="cls-5" d="M63.65,71.66,65,70l-4.26-7-3.84,3.48A27.77,27.77,0,0,0,41.19,66l-5.66-3.68-5,5.77,2.12,2Q35.45,85,38.2,100c9.3,2.74,19.28,2.92,28.15-1C65.53,89.81,64.51,80.79,63.65,71.66Z"/><path class="cls-6" d="M50.63,72.1l-5.06,7.51L47,81.33a4.34,4.34,0,0,0,6.87-.3l1.57-2.25Z"/><polygon class="cls-6" points="49.16 78.64 45.7 102.28 56.42 101.46 51.76 78.37 49.16 78.64"/><path class="cls-7" d="M34.71,72.12c3.58,3.29,6.35,5.77,9.93,9.06.27-.55.93-1.57.93-1.57"/><path class="cls-7" d="M55.46,78.78c.34.6,1.2,1.82,1.2,1.82s4.06-4.87,6.51-8"/><path class="cls-8" d="M100.32,88.67c-4.07-11.49-15.1-20-27.21-21.43l.08-2.42c-3.8-.41-6.86-.48-10.65-.89l.71,35.74C76.1,100.52,89.87,96.19,100.32,88.67Z"/><path class="cls-7" d="M73.19,67V83.18c1.15-.29,2-.44,3.18-.73-.49,5.18-1,10.53-1.45,15.71"/><path class="cls-8" d="M41.63,100.52l-8.76-37C29.31,64.6,25.6,65.12,22,66.19c.23.66.3,1.19.54,1.84-9.72,3.48-17.66,12-19.46,22.22A95.94,95.94,0,0,0,41.63,100.52Z"/><path class="cls-7" d="M22.51,67.79l3.71,14.76c-1.31-.24-2.58-.44-3.88-.68,1.57,4.69,2.84,9.53,4.41,14.22"/><path class="cls-9" d="M72,37.63a4.89,4.89,0,0,0-3.66-1.35A56.21,56.21,0,0,0,65.5,24.57c-8.2.25-16.42.36-24.62.6q-1.53,6.36-3.07,12.72c-1.13-.84-2.41-1.82-3.55-2.66a8.73,8.73,0,0,0-6.62,5,8.12,8.12,0,0,0,.94,8,9,9,0,0,0,7.62,3.44c.06,4.21-.07,8.59,0,12.8,4.86,2.48,9.58,5.15,14.44,7.62,3.35-2.71,6.62-4.67,9.77-7.61-.08-1.2-.1-2.23-.18-3.43a13.6,13.6,0,0,0,8.14-10.6c0-.1,0-.21,0-.31a17.2,17.2,0,0,0,2.2-1.79,9.89,9.89,0,0,0,3-5.15A6.29,6.29,0,0,0,72,37.63Z"/><ellipse class="cls-4" cx="44.77" cy="43.31" rx="2.57" ry="3.97" transform="translate(-7.14 77.74) rotate(-77.61)"/><ellipse class="cls-4" cx="63.48" cy="43.55" rx="3.97" ry="2.57" transform="translate(-8.27 15.65) rotate(-13.2)"/><path class="cls-7" d="M68.52,36.31l.16,14.43"/><path class="cls-7" d="M68.65,41.8,71,39.74"/><path class="cls-7" d="M31.05,39.28l4.33,3.79"/><path class="cls-7" d="M35.94,52l-.28-2.2"/><path class="cls-7" d="M47.88,61.67a14.91,14.91,0,0,0,12.69-.86"/><path class="cls-5" d="M53.58,50.24,48.1,48.81a2.82,2.82,0,0,0,3.59,3.65A2.85,2.85,0,0,0,53.58,50.24Z"/><path class="cls-7" d="M41.73,33.44a5.44,5.44,0,0,1,8.14.33"/><path class="cls-7" d="M58.89,33.69a4.37,4.37,0,0,1,7-.19"/><path class="cls-7" d="M54.25,40.29l1.11,6.9-3.2.21"/><path class="cls-7" d="M44.24,39.43a2.19,2.19,0,0,1,3.57,1.12"/><path class="cls-7" d="M60.28,40.62A1.83,1.83,0,0,1,61.37,39a1.8,1.8,0,0,1,1.94.36"/></g></g></svg>